<svg width="24" height="23" viewBox="0 0 24 23" fill="none" xmlns="http://www.w3.org/2000/svg">
<path d="M12.0027 5.74334C8.59743 5.74334 5.85075 8.30625 5.85075 11.4836C5.85075 14.661 8.59743 17.2239 12.0027 17.2239C15.4079 17.2239 18.1546 14.661 18.1546 11.4836C18.1546 8.30625 15.4079 5.74334 12.0027 5.74334ZM12.0027 15.2156C9.80212 15.2156 8.00312 13.542 8.00312 11.4836C8.00312 9.42533 9.79677 7.7517 12.0027 7.7517C14.2086 7.7517 16.0022 9.42533 16.0022 11.4836C16.0022 13.542 14.2032 15.2156 12.0027 15.2156ZM19.8412 5.50854C19.8412 6.25293 19.1987 6.84744 18.4062 6.84744C17.6085 6.84744 16.9713 6.24793 16.9713 5.50854C16.9713 4.76914 17.6138 4.16963 18.4062 4.16963C19.1987 4.16963 19.8412 4.76914 19.8412 5.50854ZM23.9157 6.86742C23.8247 5.07389 23.3856 3.48519 21.9775 2.17627C20.5747 0.867339 18.8721 0.457674 16.9499 0.367748C14.9689 0.262834 9.03112 0.262834 7.05008 0.367748C5.1333 0.452678 3.43068 0.862343 2.02253 2.17127C0.614389 3.4802 0.180703 5.0689 0.0843279 6.86243C-0.0281093 8.71091 -0.0281093 14.2514 0.0843279 16.0999C0.175349 17.8934 0.614389 19.4821 2.02253 20.791C3.43068 22.0999 5.12794 22.5096 7.05008 22.5995C9.03112 22.7045 14.9689 22.7045 16.9499 22.5995C18.8721 22.5146 20.5747 22.1049 21.9775 20.791C23.3803 19.4821 23.8193 17.8934 23.9157 16.0999C24.0281 14.2514 24.0281 8.71591 23.9157 6.86742ZM21.3564 18.0832C20.9388 19.0624 20.1303 19.8168 19.0755 20.2115C17.496 20.796 13.7481 20.6611 12.0027 20.6611C10.2572 20.6611 6.50396 20.791 4.92984 20.2115C3.88042 19.8218 3.07195 19.0674 2.64897 18.0832C2.02253 16.6094 2.16709 13.1123 2.16709 11.4836C2.16709 9.85498 2.02789 6.35285 2.64897 4.88405C3.06659 3.90485 3.87507 3.15047 4.92984 2.75579C6.50931 2.17127 10.2572 2.30616 12.0027 2.30616C13.7481 2.30616 17.5014 2.17627 19.0755 2.75579C20.1249 3.14547 20.9334 3.89985 21.3564 4.88405C21.9828 6.35784 21.8383 9.85498 21.8383 11.4836C21.8383 13.1123 21.9828 16.6144 21.3564 18.0832Z" fill="#586574"/>
</svg>
