<svg width="24" height="23" viewBox="0 0 24 23" fill="none" xmlns="http://www.w3.org/2000/svg">
<path d="M22.2857 0.289062H1.70893C0.766071 0.289062 0 1.01371 0 1.90328V21.064C0 21.9536 0.766071 22.6782 1.70893 22.6782H22.2857C23.2286 22.6782 24 21.9536 24 21.064V1.90328C24 1.01371 23.2286 0.289062 22.2857 0.289062ZM7.25357 19.4798H3.69643V8.79494H7.25893V19.4798H7.25357ZM5.475 7.33565C4.33393 7.33565 3.4125 6.47107 3.4125 5.41158C3.4125 4.3521 4.33393 3.48751 5.475 3.48751C6.61071 3.48751 7.5375 4.3521 7.5375 5.41158C7.5375 6.47607 6.61607 7.33565 5.475 7.33565ZM20.5875 19.4798H17.0304V14.2823C17.0304 13.0429 17.0036 11.4487 15.1821 11.4487C13.3286 11.4487 13.0446 12.798 13.0446 14.1923V19.4798H9.4875V8.79494H12.9V10.2542H12.9482C13.425 9.41464 14.5875 8.53007 16.3179 8.53007C19.9179 8.53007 20.5875 10.744 20.5875 13.6226V19.4798Z" fill="#586574"/>
</svg>
