<svg width="24" height="23" viewBox="0 0 24 23" fill="none" xmlns="http://www.w3.org/2000/svg">
<path d="M24 11.4836C24 17.6677 18.629 22.6782 12 22.6782C10.7613 22.6782 9.57097 22.5022 8.44839 22.1772C8.9371 21.4324 9.66774 20.2136 9.93871 19.2431C10.0839 18.7195 10.6839 16.5799 10.6839 16.5799C11.0758 17.275 12.2177 17.8664 13.4323 17.8664C17.0516 17.8664 19.6597 14.7608 19.6597 10.9013C19.6597 7.20442 16.4226 4.43738 12.2613 4.43738C7.08387 4.43738 4.33065 7.67839 4.33065 11.2128C4.33065 12.8559 5.26935 14.9007 6.76452 15.5507C6.99194 15.65 7.1129 15.6049 7.16613 15.4017C7.20484 15.2483 7.40806 14.4854 7.5 14.1333C7.52903 14.0205 7.51452 13.9212 7.41774 13.8128C6.92903 13.2486 6.53226 12.2194 6.53226 11.2579C6.53226 8.78882 8.53548 6.40094 11.9516 6.40094C14.8984 6.40094 16.9645 8.27423 16.9645 10.9555C16.9645 13.9844 15.3242 16.0834 13.1903 16.0834C12.0145 16.0834 11.129 15.176 11.4145 14.0611C11.7532 12.7295 12.4065 11.2941 12.4065 10.3326C12.4065 9.47494 11.9129 8.75722 10.8871 8.75722C9.68226 8.75722 8.71452 9.9173 8.71452 11.4746C8.71452 12.4677 9.07258 13.1357 9.07258 13.1357C9.07258 13.1357 7.8871 17.8212 7.66935 18.6969C7.42742 19.6629 7.52419 21.0261 7.62581 21.9109C3.16452 20.2813 0 16.2278 0 11.4836C0 5.29954 5.37097 0.289062 12 0.289062C18.629 0.289062 24 5.29954 24 11.4836Z" fill="#586574"/>
</svg>
