<svg width="24" height="23" viewBox="0 0 24 23" fill="none" xmlns="http://www.w3.org/2000/svg">
<path d="M23.4985 3.79221C23.2225 2.41329 22.4092 1.3273 21.3766 0.958755C19.505 0.289062 12 0.289062 12 0.289062C12 0.289062 4.49503 0.289062 2.62336 0.958755C1.59077 1.32736 0.777523 2.41329 0.501503 3.79221C0 6.29157 0 11.5063 0 11.5063C0 11.5063 0 16.721 0.501503 19.2203C0.777523 20.5992 1.59077 21.64 2.62336 22.0085C4.49503 22.6782 12 22.6782 12 22.6782C12 22.6782 19.505 22.6782 21.3766 22.0085C22.4092 21.64 23.2225 20.5992 23.4985 19.2203C24 16.721 24 11.5063 24 11.5063C24 11.5063 24 6.29157 23.4985 3.79221ZM9.54544 16.2408V6.77172L15.8181 11.5064L9.54544 16.2408Z" fill="#586574"/>
</svg>
